<mxfile host="65bd71144e">
    <diagram id="tOxggag18z2KIUQ1Wctv" name="Page-1">
        <mxGraphModel dx="520" dy="437" grid="1" gridSize="10" guides="1" tooltips="1" connect="1" arrows="1" fold="1" page="1" pageScale="1" pageWidth="850" pageHeight="1100" math="0" shadow="0">
            <root>
                <mxCell id="0"/>
                <mxCell id="1" parent="0"/>
                <mxCell id="2" value="Natural Numbers" style="swimlane;" parent="1" vertex="1">
                    <mxGeometry x="110" y="130" width="340" height="220" as="geometry"/>
                </mxCell>
                <mxCell id="3" value="Calculate" style="rounded=1;whiteSpace=wrap;html=1;" parent="2" vertex="1">
                    <mxGeometry x="20" y="130" width="80" height="20" as="geometry"/>
                </mxCell>
                <mxCell id="7" value="3" style="text;html=1;strokeColor=none;fillColor=none;align=left;verticalAlign=middle;whiteSpace=wrap;rounded=0;" parent="2" vertex="1">
                    <mxGeometry x="20" y="90" width="120" height="20" as="geometry"/>
                </mxCell>
                <mxCell id="8" value="&lt;b style=&quot;font-family: &amp;#34;arial&amp;#34; , sans-serif ; font-size: 16px ; text-align: left&quot;&gt;&lt;font color=&quot;#000000&quot;&gt;S&lt;sub&gt;n&lt;/sub&gt;&amp;nbsp;= n(n+1)/2&lt;/font&gt;&lt;/b&gt;" style="text;html=1;align=center;verticalAlign=middle;resizable=0;points=[];autosize=1;strokeColor=none;fillColor=none;" parent="2" vertex="1">
                    <mxGeometry x="20" y="40" width="110" height="20" as="geometry"/>
                </mxCell>
                <mxCell id="6" value="" style="endArrow=none;html=1;" parent="2" edge="1">
                    <mxGeometry width="50" height="50" relative="1" as="geometry">
                        <mxPoint x="20" y="109.67000000000002" as="sourcePoint"/>
                        <mxPoint x="140" y="109.67000000000002" as="targetPoint"/>
                    </mxGeometry>
                </mxCell>
                <mxCell id="9" value="The answer is 6" style="text;html=1;strokeColor=none;fillColor=none;align=center;verticalAlign=middle;whiteSpace=wrap;rounded=0;" vertex="1" parent="2">
                    <mxGeometry x="15" y="160" width="120" height="20" as="geometry"/>
                </mxCell>
            </root>
        </mxGraphModel>
    </diagram>
</mxfile>